<?xml version="1.0" encoding="UTF-8" standalone="no"?>
<svg
   height="384pt"
   viewBox="0 0 384 384"
   width="384pt"
   version="1.1"
   id="svg10"
   sodipodi:docname="function.svg"
   inkscape:version="1.1 (1:1.1+202105261517+ce6663b3b7)"
   xmlns:inkscape="http://www.inkscape.org/namespaces/inkscape"
   xmlns:sodipodi="http://sodipodi.sourceforge.net/DTD/sodipodi-0.dtd"
   xmlns="http://www.w3.org/2000/svg"
   xmlns:svg="http://www.w3.org/2000/svg">
  <defs
     id="defs14" />
  <sodipodi:namedview
     id="namedview12"
     pagecolor="#ffffff"
     bordercolor="#666666"
     borderopacity="1.0"
     inkscape:pageshadow="2"
     inkscape:pageopacity="0.0"
     inkscape:pagecheckerboard="0"
     inkscape:document-units="pt"
     showgrid="false"
     inkscape:zoom="1.6484375"
     inkscape:cx="285.11848"
     inkscape:cy="371.26066"
     inkscape:window-width="1861"
     inkscape:window-height="1023"
     inkscape:window-x="59"
     inkscape:window-y="27"
     inkscape:window-maximized="1"
     inkscape:current-layer="svg10" />
  <path
     d="m192 32v-32c-44.832031 0-83.167969 32.007812-91.183594 76.113281l-18.167968 99.886719h-42.648438v32h36.832031l-17.128906 94.167969c-5.246094 28.878906-30.351563 49.832031-59.703125 49.832031v32c44.832031 0 83.167969-32.007812 91.183594-76.113281l18.167968-99.886719h34.648438v-32h-28.832031l17.128906-94.167969c5.246094-28.878906 30.351563-49.832031 59.703125-49.832031zm0 0"
     id="path2"
     style="fill:#f5f5f5" />
  <path
     d="m208 96-12.800781-9.601562c-1.109375 1.480468-27.199219 37.058593-27.199219 105.601562s26.089844 104.121094 27.199219 105.601562l25.59375-19.203124c-.199219-.269532-20.792969-29.328126-20.792969-86.398438 0-57.054688 20.664062-86.207031 20.871094-86.503906zm0 0"
     id="path4"
     style="fill:#f5f5f5" />
  <path
     d="m331.199219 105.601562c.207031.269532 20.800781 29.328126 20.800781 86.398438 0 57.054688-20.664062 86.207031-20.871094 86.503906l12.871094 9.496094 12.800781 9.601562c1.121094-1.488281 27.199219-37.058593 27.199219-105.601562s-26.089844-104.121094-27.199219-105.601562zm0 0"
     id="path6"
     style="fill:#f5f5f5" />
  <path
     d="m291.0625 142.585938-19.0625 26.214843-19.0625-26.214843-25.875 18.828124 25.152344 34.585938-25.152344 34.585938 25.875 18.828124 19.0625-26.214843 19.0625 26.214843 25.875-18.828124-25.152344-34.585938 25.152344-34.585938zm0 0"
     id="path8"
     style="fill:#f5f5f5" />
</svg>
